<?xml version="1.0" encoding="UTF-8"?>
<!-- Created with Inkscape (http://www.inkscape.org/) -->
<svg width="244.51" height="95.909" version="1.1" viewBox="0 0 244.51 95.909" xmlns="http://www.w3.org/2000/svg" xmlns:xlink="http://www.w3.org/1999/xlink">
 <defs>
  <radialGradient id="radialGradient14710" cx="284.5" cy="-175.25" r="23.369" gradientTransform="matrix(1 0 0 .99999 -158.11 192.32)" gradientUnits="userSpaceOnUse">
   <stop stop-color="#fefdfe" offset="0"/>
   <stop stop-color="#9182c9" offset=".25"/>
   <stop stop-color="#675ab3" offset=".5"/>
   <stop stop-color="#4942a2" offset=".75"/>
   <stop stop-color="#2e3192" offset="1"/>
  </radialGradient>
  <clipPath id="clipPath21303">
   <path d="m130.06 7.108c7.22 0 13.107 5.8867 13.107 13.105 0 7.2187-5.8867 13.107-13.107 13.107-7.2181 0-13.106-5.888-13.106-13.107 0-7.2187 5.888-13.105 13.106-13.105z" clip-rule="evenodd" stroke-width=".13333"/>
  </clipPath>
  <radialGradient id="radialGradient5197" cx="-81.18" cy="-262.16" r="39.784" gradientTransform="matrix(1 0 0 .98005 197.78 275.12)" gradientUnits="userSpaceOnUse">
   <stop stop-color="#fdfdfe" offset="0"/>
   <stop stop-color="#b4a7da" offset=".25"/>
   <stop stop-color="#786abc" offset=".5"/>
   <stop stop-color="#5047a6" offset=".75"/>
   <stop stop-color="#2e3192" offset="1"/>
  </radialGradient>
  <clipPath id="clipPath21357">
   <path d="m136.49 33.884c-1.9533 0.924-4.132 1.4427-6.4307 1.4427-8.3239 0-15.113-6.7893-15.113-15.113 0-7.7933 5.9532-14.243 13.544-15.032l-1.4437-5.1813c-12.11 1.5587-21.521 11.953-21.521 24.475 0 13.591 11.086 24.677 24.677 24.677 3.5387 0 6.9067-0.75413 9.9547-2.1057z" clip-rule="evenodd" stroke-width=".13333"/>
  </clipPath>
 </defs>
 <ellipse cx="116.6" cy="18.186" rx="39.784" ry="38.99" clip-path="url(#clipPath21357)" fill="url(#radialGradient5197)" stop-color="#000000" stroke-width=".66441" style="paint-order:fill markers stroke"/>
 <path d="m126.39 17.068h23.369c0-12.905-10.464-23.368-23.369-23.368-12.906 0-23.369 10.463-23.369 23.368 0 12.907 10.463 23.369 23.369 23.369 12.905 0 23.369-10.463 23.369-23.369" clip-path="url(#clipPath21303)" fill="url(#radialGradient14710)"/>
 <path d="m31.636 48.377c-0.47217-0.10493-0.83942-0.15739-1.469-0.31478-2.4658-0.62957-6.0858-1.1542-9.0762-1.1542-5.2988 0-10.598 1.5215-14.48 4.4594-3.8823 2.9904-6.6104 7.7647-6.6104 13.903 0 6.8728 3.2003 11.647 7.4499 14.428 3.7774 2.4658 8.2368 3.5151 13.431 3.5151 3.4102 0 7.0302-0.89189 8.1844-1.2591 0.57711-0.15739 1.2067-0.36725 1.8362-0.47218 0.73449-0.99681 2.151-4.4594 2.5183-7.9745-0.26232-0.47218-1.1018-0.68203-1.5739-0.20986-1.469 3.4102-4.3545 7.8171-10.965 7.8171-6.7678 0-13.746-5.4562-13.746-16.631 0-10.755 6.7154-15.477 13.378-15.477 6.9252 0 9.2861 4.3545 10.178 7.6597 0.36725 0.36725 1.3116 0.31478 1.6788-0.10493-0.52464-3.8823-0.62957-6.9777-0.7345-8.1844z" stroke-width=".97155" style="font-variant-ligatures:no-common-ligatures;paint-order:fill markers stroke"/>
 <path d="m45.432 60.969c-6.1383 0-11.49 4.407-11.49 11.437 0 6.8728 5.0365 10.703 11.07 10.703 6.2432 0 11.49-3.8823 11.49-11.332 0-6.8203-5.1415-10.808-11.07-10.808zm-5.2988 10.65c0-5.8235 2.0986-8.5516 4.7742-8.5516 3.8823 0 5.4038 5.1939 5.4038 9.6009 0 4.0397-1.0493 8.3418-4.6693 8.3418-3.7774 0-5.5087-4.6168-5.5087-9.391z" stroke-width=".97155" style="font-variant-ligatures:no-common-ligatures;paint-order:fill markers stroke"/>
 <path d="m60.038 76.131c0 3.8823-0.20985 4.407-1.9936 4.7218l-0.94435 0.15739c-0.36724 0.36725-0.31478 1.3116 0.10493 1.5215 1.9936-0.10493 3.7249-0.15739 5.4562-0.15739 1.9412 0 3.7249 0.05246 5.5612 0.15739 0.41971-0.20986 0.47218-1.1542 0.10493-1.5215l-0.78696-0.10493c-1.7838-0.26232-1.9936-0.89189-1.9936-4.7742v-7.0302c0-2.0461 0.0525-2.5183 0.68203-3.3577 0.5771-0.78696 1.9412-1.6264 3.7249-1.6264 3.0429 0 3.9873 2.0986 3.9873 4.8791v7.1351c0 3.8823-0.20986 4.5119-1.9936 4.7742l-0.68203 0.10493c-0.36725 0.36725-0.31479 1.3116 0.10492 1.5215 1.7313-0.10493 3.5151-0.15739 5.2464-0.15739 1.9412 0 3.6725 0.05246 5.5087 0.15739 0.41972-0.20986 0.47218-1.1542 0.10493-1.5215l-0.78696-0.10493c-1.7838-0.26232-1.9936-0.89189-1.9936-4.7742v-7.7122c0-1.469 0.10493-2.0986 0.62957-2.7281 0.62957-0.78696 1.9936-1.5739 3.5151-1.5739 3.3052 0 4.2496 2.0986 4.2496 4.8791v7.1351c0 3.8823-0.20986 4.407-1.9936 4.7218l-0.83942 0.15739c-0.36725 0.36725-0.31478 1.3116 0.10493 1.5215 1.8887-0.10493 3.6725-0.15739 5.4038-0.15739 1.9412 0 3.7249 0.05246 5.9809 0.15739 0.20986-0.20986 0.47218-1.1542 0-1.5215l-1.1542-0.15739c-1.7838-0.26232-1.9936-0.83942-1.9936-4.7218v-8.1319c0-4.0922-1.9936-7.0302-6.4006-7.0302-2.4658 0-4.2496 0.94435-6.7154 2.4658-0.62956 0.36725-0.94435 0.52464-1.1542 0.52464-0.20986 0-0.52464-0.31478-0.83942-0.78696-0.7345-0.99681-2.4658-2.2035-4.7218-2.2035-3.5675 0-4.9316 1.2591-7.5023 2.6232-0.31479-0.05246-0.47218-0.15739-0.47218-0.52464 0-0.41971 0-1.4165 0.10493-2.4133-0.10493-0.20986-0.31478-0.41971-0.68203-0.41971-1.6788 0.94435-4.5119 2.2035-6.8203 2.8331-0.20985 0.26232-0.20985 0.99681-0.0525 1.2067l0.62956 0.36725c1.3116 0.78696 1.3116 1.4165 1.3116 3.7774z" stroke-width=".97155" style="font-variant-ligatures:no-common-ligatures;paint-order:fill markers stroke"/>
 <path d="m98.503 89.509c0 3.8823-0.20986 4.5119-1.9936 4.7218l-1.3641 0.15739c-0.36725 0.36725-0.31479 1.3116 0.10492 1.5215 2.0986-0.10493 4.1446-0.15739 5.876-0.15739 1.9412 0 3.9873 0.05246 6.7154 0.15739 0.41971-0.20986 0.47218-1.1542 0.10493-1.5215l-1.8887-0.20986c-1.8362-0.20986-2.0461-0.78696-2.0461-4.6693v-5.1415c0-1.0493 0.31478-1.3641 0.78695-1.469 0.47218 0.10493 1.6788 0.20986 2.3084 0.20986 7.7122 0 12.854-5.1415 12.854-12.434 0-5.4038-3.3052-9.7058-9.0238-9.7058-2.7281 0-5.8235 1.9412-6.5055 2.2559-0.26232-0.05246-0.41971-0.36725-0.41971-0.68203 0-0.47218 0.10492-1.1017 0.26232-2.0461-0.10493-0.31478-0.41972-0.52464-0.83943-0.52464-1.5739 1.0493-4.7218 2.5183-6.8203 3.0954-0.26232 0.26232-0.26232 0.89189-0.0525 1.2067l0.62957 0.41971c1.3641 0.89189 1.3116 1.3641 1.3116 3.7249zm5.5087-20.881c0-2.2035 0.15739-3.0954 0.5771-3.5675 0.62957-0.62957 1.6264-1.0493 2.833-1.0493 4.0922 0 6.6629 3.4102 6.6629 8.3942 0 4.8267-1.9936 8.6041-5.6136 8.6041-0.78696 0-2.0986-0.47218-2.7806-1.0493-1.1017-0.94435-1.6788-1.7313-1.6788-3.3577z" stroke-width=".97155" style="font-variant-ligatures:no-common-ligatures;paint-order:fill markers stroke"/>
 <path d="m141.95 65.9c0-1.9412 0.0525-3.4626 0.15739-4.4594-0.0525-0.26232-0.26232-0.41971-0.52464-0.47218-1.0493 0.52464-4.7218 0.89189-8.2368 0.94435-0.41971 0.20986-0.41971 1.1542-0.0525 1.4165l0.83943 0.26232c1.9936 0.62957 2.3084 0.83942 2.3084 4.1971v7.922c0 1.9412-0.10493 2.4133-0.62957 2.938-0.89188 0.83942-2.256 1.3116-3.4626 1.3116-3.7249 0-4.302-2.8855-4.302-5.9809v-8.0794c0-2.5707 0.0525-3.8299 0.1574-4.4594-0.0525-0.26232-0.26232-0.41971-0.52464-0.47218-1.1542 0.41971-4.1446 0.89189-7.2925 0.94435-0.41971 0.15739-0.41971 1.1017-0.10492 1.3641l0.73449 0.20986c1.3116 0.36725 1.5214 0.78696 1.5214 4.4594v8.1844c0 4.3545 1.5215 6.9777 6.2432 6.9777 2.6232 0 4.9316-1.2067 7.1351-2.5183 0.31478 0 0.47217 0.15739 0.52464 0.5771 0.0525 0.52464-0.0525 1.3116-0.15739 1.9412 0.0525 0.26232 0.20985 0.47218 0.47217 0.52464 2.256-1.0493 6.2957-1.7313 8.6041-1.9936 0.68203-0.41971 0.5771-1.5215 0.15739-1.7838-0.73449 0.20986-1.5214 0.36725-2.2559 0.36725-1.2591 0-1.3116-2.6232-1.3116-5.5612z" stroke-width=".97155" style="font-variant-ligatures:no-common-ligatures;paint-order:fill markers stroke"/>
 <path d="m155.64 83.213c7.6073 0 12.172-4.2496 12.172-10.23 0-5.2989-3.7774-8.5516-7.1876-10.335l-3.2528-1.7313c-3.4626-1.8362-4.9841-4.1971-4.9841-6.4006 0-2.7806 1.7313-5.5087 5.9284-5.5087 4.4594 0 6.2957 3.5151 7.0826 6.2432 0.47217 0.36725 1.4165 0.31478 1.6788-0.15739 0-2.4658-0.52464-5.9284-1.1017-7.0826-2.4658-0.47218-4.4594-1.1017-7.1876-1.1017-7.6597 0-11.542 4.407-11.542 9.6009 0 4.7218 3.4626 7.922 7.3974 10.126l2.256 1.2591c3.9348 2.2035 5.3513 4.6168 5.3513 7.6073 0 3.2003-2.2559 5.6136-6.2432 5.6136-5.1415 0-7.9745-5.6136-8.9189-8.2893-0.41972-0.36725-1.3116-0.31478-1.6264 0.20986-0.0525 3.2528 0.62957 6.8728 1.5739 7.9745 1.0493 0.62957 3.7774 2.2035 8.6041 2.2035z" stroke-width=".97155" style="font-variant-ligatures:no-common-ligatures;paint-order:fill markers stroke"/>
 <path d="m183.9 69.94c2.0986 0 3.3052-0.20986 3.62-0.68203 0.20986-0.41971 0.26232-0.73449 0.26232-1.2067 0-4.5644-3.9872-7.0826-7.8696-7.0826-7.0302 0-11.07 5.7186-11.07 11.647 0 5.9809 4.0397 10.493 10.126 10.493 3.2003 0 7.0826-1.5739 8.8664-5.771-0.0525-0.47218-0.62957-0.99681-1.1542-0.83942-1.2067 1.9412-2.938 2.6232-5.0365 2.6232-4.6693 0-7.922-3.7774-7.922-8.4992 0-0.62957 0.10493-0.68203 1.1017-0.68203zm-9.0238-2.0986c-0.62956 0-0.73449-0.15739-0.73449-0.36725 0-1.1017 1.6264-4.5119 5.1415-4.5119 2.256 0 3.4626 1.5215 3.4626 3.4102 0 0.47218-0.20985 0.89189-0.52463 1.1017-0.36725 0.20986-1.0493 0.36725-2.5707 0.36725z" stroke-width=".97155" style="font-variant-ligatures:no-common-ligatures;paint-order:fill markers stroke"/>
 <path d="m191.03 76.131c0 3.8823-0.20986 4.407-1.9936 4.7218l-0.94435 0.15739c-0.36725 0.36725-0.31478 1.3116 0.10493 1.5215 1.9936-0.10493 3.7249-0.15739 5.4562-0.15739 1.9412 0 3.7249 0.05246 6.8728 0.15739 0.41972-0.20986 0.47218-1.1542 0.10493-1.5215l-2.0461-0.20986c-1.8362-0.20986-2.0461-0.78696-2.0461-4.6693v-7.1876c0-2.5707 0.31478-3.7774 1.5214-3.7774 0.31478 0 1.2067 0.10493 2.5183 0.99681 0.41971 0.26232 0.89189 0.41971 1.4165 0.41971 1.4165 0 2.938-0.99681 2.938-3.0429 0-1.3641-1.0493-2.5707-2.8855-2.5707-1.7838 0-3.5151 1.5739-5.1415 2.7281-0.31479 0-0.52464-0.26232-0.52464-0.62957 0-0.47218 0.0525-1.3641 0.10492-2.3609-0.10492-0.31478-0.41971-0.47218-0.73449-0.47218-1.5739 0.94435-4.3545 2.0986-6.6104 2.8331-0.20986 0.26232-0.20986 0.99681-0.0525 1.2067l0.62957 0.36725c1.3116 0.78696 1.3116 1.4165 1.3116 3.7774z" stroke-width=".97155" style="font-variant-ligatures:no-common-ligatures;paint-order:fill markers stroke"/>
 <path d="m222.74 67.526c1.6264-3.5675 2.3609-3.9348 3.9348-4.2496l1.0493-0.20986c0.41971-0.36725 0.36725-1.3116-0.10493-1.5215-1.1542 0.10493-2.4658 0.15739-3.8299 0.15739-1.5214 0-2.833-0.05246-4.407-0.15739-0.5771 0.20986-0.62956 1.1017-0.20985 1.5215l1.2591 0.26232c0.62957 0.10493 1.1017 0.31478 1.1017 0.68203 0 0.36725-0.20985 1.0493-0.73449 2.3609-1.3641 3.3052-2.6232 6.5055-3.8823 9.1287-0.78696-1.5739-3.4626-8.0794-4.1971-10.021-0.31479-0.78696-0.41971-1.3641-0.41971-1.6788 0-0.31478 0.5771-0.47218 1.3116-0.5771l0.94435-0.15739c0.47218-0.36725 0.41971-1.3116-0.10492-1.5215-1.8362 0.10493-3.4102 0.15739-5.771 0.15739-1.8362 0-3.6725-0.05246-5.5087-0.15739-0.41971 0.26232-0.47218 1.1542-0.10493 1.5215l0.99681 0.20986c1.5739 0.31478 2.151 0.99681 3.2003 3.2528 0.99682 2.2035 3.8823 8.8139 5.0365 11.385 0.62956 1.3641 1.469 3.4102 1.9936 4.8791 0.26232 0.20986 0.57711 0.31478 0.94435 0.31478 0.36725 0 0.68203-0.10493 0.89189-0.31478 0.62957-1.7838 1.6264-4.2496 2.4658-6.1383z" stroke-width=".97155" style="font-variant-ligatures:no-common-ligatures;paint-order:fill markers stroke"/>
 <path d="m240.57 69.94c2.0986 0 3.3052-0.20986 3.62-0.68203 0.20986-0.41971 0.26232-0.73449 0.26232-1.2067 0-4.5644-3.9872-7.0826-7.8696-7.0826-7.0302 0-11.07 5.7186-11.07 11.647 0 5.9809 4.0397 10.493 10.126 10.493 3.2003 0 7.0826-1.5739 8.8664-5.771-0.0525-0.47218-0.62957-0.99681-1.1542-0.83942-1.2067 1.9412-2.938 2.6232-5.0365 2.6232-4.6693 0-7.922-3.7774-7.922-8.4992 0-0.62957 0.10493-0.68203 1.1017-0.68203zm-9.0238-2.0986c-0.62956 0-0.73449-0.15739-0.73449-0.36725 0-1.1017 1.6264-4.5119 5.1415-4.5119 2.256 0 3.4626 1.5215 3.4626 3.4102 0 0.47218-0.20986 0.89189-0.52464 1.1017-0.36725 0.20986-1.0493 0.36725-2.5707 0.36725z" stroke-width=".97155" style="font-variant-ligatures:no-common-ligatures;paint-order:fill markers stroke"/>
</svg>
