<svg version="1.1" id="Layer_1" xmlns="http://www.w3.org/2000/svg" xmlns:xlink="http://www.w3.org/1999/xlink" x="0px" y="0px"
	 width="100%" viewBox="0 0 900 500" enable-background="new 0 0 900 500" xml:space="preserve">
<path fill="#FFFFFF" opacity="1.000000" stroke="none" 
	d="
M574.000000,501.000000 
	C382.666656,501.000000 191.833328,501.000000 1.000000,501.000000 
	C1.000000,334.333344 1.000000,167.666672 1.000000,1.000000 
	C301.000000,1.000000 601.000000,1.000000 901.000000,1.000000 
	C901.000000,167.666672 901.000000,334.333344 901.000000,501.000000 
	C792.166687,501.000000 683.333313,501.000000 574.000000,501.000000 
M571.412842,204.132050 
	C387.650421,204.132050 203.888016,204.132050 19.913189,204.132050 
	C19.913189,205.993790 19.913189,207.500793 19.913189,209.201263 
	C21.105612,209.201263 21.924936,209.201263 22.744261,209.201263 
	C207.374680,209.201248 392.005096,209.207092 576.635498,209.136734 
	C579.037964,209.135818 581.583618,208.514145 583.820007,207.593399 
	C604.546204,199.060181 625.222839,190.406448 645.906250,181.769394 
	C662.578796,174.807190 679.240723,167.819702 696.132812,160.749084 
	C695.307861,159.007233 694.627258,157.570068 693.883362,155.999329 
	C692.583740,156.457245 691.494934,156.778580 690.455139,157.216293 
	C655.417664,171.966034 620.416687,186.803543 585.307495,201.380554 
	C581.307251,203.041428 576.703918,203.250046 571.412842,204.132050 
M673.541504,275.989197 
	C670.253723,275.989197 666.965942,275.989197 663.915039,275.989197 
	C662.544312,280.095947 664.862915,280.108826 667.395081,280.468567 
	C677.694885,281.931946 683.915161,289.137756 684.157471,299.527802 
	C684.389526,309.476288 681.099670,318.103180 674.475891,325.644714 
	C673.686890,325.021057 672.836670,324.490906 672.159546,323.792847 
	C658.213562,309.415466 645.380371,294.147705 635.467712,276.654083 
	C633.032166,272.355835 630.779419,267.778625 629.487610,263.044495 
	C626.866272,253.437592 631.025208,245.857529 639.326233,243.742737 
	C646.721985,241.858582 654.455750,244.691208 658.322510,251.337082 
	C660.378113,254.870117 661.768555,258.872070 662.926819,262.818634 
	C663.808289,265.821808 665.230957,266.411346 668.181885,265.359283 
	C668.181885,259.493347 667.855896,253.657959 668.290344,247.879745 
	C668.608643,243.646683 666.647949,242.017853 663.105957,240.940536 
	C653.296082,237.956802 643.377991,237.739609 633.531433,240.232239 
	C621.741028,243.216965 615.120667,252.635483 616.221924,264.771667 
	C616.648621,269.474243 618.106079,274.083344 619.161377,279.052338 
	C619.180481,279.034302 618.881348,279.517792 618.456360,279.689667 
	C594.250854,289.476624 595.388916,322.274109 614.190613,336.043915 
	C629.140991,346.993134 645.517639,346.826843 662.051758,340.335175 
	C666.111267,338.741333 669.196533,338.678772 673.180542,340.244995 
	C677.903320,342.101654 683.068298,342.862854 688.070007,343.970367 
	C691.220764,344.668060 692.672302,343.307129 692.376343,340.557404 
	C687.216736,336.838165 682.431030,333.388397 677.477478,329.817749 
	C692.014771,313.542999 693.488464,295.542297 687.728882,275.989197 
	C683.166382,275.989197 678.844971,275.989197 673.541504,275.989197 
M109.884567,267.677429 
	C103.725273,251.569595 91.542625,242.566208 74.877823,241.282028 
	C56.830997,239.891342 38.637726,240.399261 20.507883,240.106705 
	C20.251995,240.102585 19.990322,240.456848 19.466488,240.835083 
	C19.640425,242.070068 19.833241,243.439117 20.060040,245.049423 
	C24.454506,245.049423 28.415163,245.049423 32.353470,245.049423 
	C32.353470,275.912811 32.353470,306.466492 32.353470,337.567596 
	C27.989237,337.567596 23.920021,337.567596 19.736717,337.567596 
	C19.736717,339.257385 19.700403,340.400024 19.763857,341.537109 
	C19.778566,341.800659 20.133751,342.045258 21.032871,343.192535 
	C38.966858,342.481323 57.632984,342.522034 76.131386,340.780884 
	C93.531754,339.143036 105.750252,329.317444 110.807121,312.195496 
	C115.102501,297.651794 114.704727,282.952271 109.884567,267.677429 
M169.660568,308.500793 
	C169.660568,302.728760 169.660568,296.956726 169.660568,291.245148 
	C187.234955,289.638641 192.707565,292.853455 195.338318,305.996521 
	C196.793304,305.996521 198.248306,305.996521 199.711670,305.996521 
	C199.711670,293.738098 199.711670,281.679626 199.711670,269.324280 
	C197.955872,269.529053 196.559891,269.691864 195.254501,269.844116 
	C193.802353,282.727783 187.639175,286.316650 169.973419,284.840851 
	C169.973419,271.657806 169.973419,258.465179 169.973419,245.018829 
	C174.929962,245.018829 179.580215,245.145660 184.221573,244.996017 
	C200.843430,244.460144 205.393982,247.255890 209.121002,263.373596 
	C209.841248,266.488434 211.501602,267.446869 214.389862,265.887543 
	C214.389862,257.285248 214.389862,248.845688 214.389862,240.263748 
	C189.762909,240.263748 165.365631,240.263748 140.731247,240.263748 
	C140.954178,241.972717 141.135880,243.365646 141.349487,245.003113 
	C145.664352,245.003113 149.608124,245.003113 153.713409,245.003113 
	C153.713409,275.890900 153.713409,306.478638 153.713409,337.502075 
	C149.410110,337.502075 145.315155,337.502075 141.142853,337.502075 
	C141.142853,339.365051 141.142853,340.790619 141.142853,342.292084 
	C165.673569,342.292084 189.946976,342.292084 214.585785,342.292084 
	C215.438614,332.077728 216.272842,322.086090 217.112885,312.024933 
	C215.084106,312.024933 213.655640,312.024933 212.191574,312.024933 
	C211.743607,314.344788 211.331146,316.461487 210.926498,318.579651 
	C209.352203,326.820526 204.801132,332.954742 196.585617,334.735077 
	C187.949844,336.606537 179.021133,337.126282 169.660553,338.307343 
	C169.660553,327.757141 169.660553,318.628784 169.660568,308.500793 
M349.142365,308.516632 
	C349.149048,304.517242 348.634521,300.429657 349.292755,296.540558 
	C350.138794,291.541718 351.303772,286.406555 353.460266,281.866333 
	C356.379944,275.719208 364.971436,272.432312 371.437073,273.979401 
	C376.664001,275.230072 379.245178,279.541382 379.706268,287.816650 
	C379.752594,288.647705 379.742950,289.482452 379.743042,290.315491 
	C379.745026,304.647034 379.752136,318.978607 379.731018,333.310120 
	C379.729156,334.568726 379.538818,335.827087 379.393921,337.600647 
	C375.836578,337.600647 372.603851,337.600647 369.290558,337.600647 
	C369.290558,339.447571 369.290558,340.743225 369.290558,342.283936 
	C380.880127,342.283936 392.296661,342.283936 403.747284,342.283936 
	C403.747284,340.612640 403.747284,339.192871 403.747284,337.347595 
	C400.409943,337.347595 397.327911,337.347595 393.972137,337.347595 
	C393.972137,335.282257 393.972961,333.632690 393.972015,331.983124 
	C393.963806,317.318420 394.105072,302.651581 393.899628,287.989655 
	C393.734192,276.181702 387.908569,268.533264 377.827911,267.121826 
	C368.067505,265.755249 359.316528,268.207977 352.454559,275.775513 
	C351.546936,276.776428 350.597534,277.739410 349.005554,279.417877 
	C349.005554,265.602051 349.005554,252.841141 349.005554,239.975098 
	C340.886475,239.975098 333.095703,239.975098 325.148682,239.975098 
	C325.148682,241.573349 325.148682,243.012070 325.148682,244.847855 
	C328.425415,244.847855 331.515106,244.847855 334.641754,244.847855 
	C334.641754,275.938599 334.641754,306.630615 334.641754,337.571655 
	C331.317841,337.571655 328.340668,337.571655 325.161224,337.571655 
	C325.161224,339.267181 325.161224,340.711853 325.161224,342.272552 
	C336.743896,342.272552 348.177368,342.272552 359.919952,342.272552 
	C359.831512,340.591949 359.757477,339.184387 359.661163,337.353821 
	C356.071198,337.353821 352.806396,337.353821 349.142334,337.353821 
	C349.142334,327.782166 349.142334,318.646912 349.142365,308.516632 
M528.378601,275.567810 
	C527.839111,276.518555 527.098755,277.409027 526.792664,278.429749 
	C524.789429,285.109619 522.883728,291.818756 520.939087,298.516266 
	C518.429688,307.158936 515.913574,315.799713 513.400330,324.441315 
	C513.095764,324.393738 512.791199,324.346191 512.486694,324.298615 
	C508.591217,307.598328 504.695770,290.898041 500.664429,273.615112 
	C504.557434,273.615112 507.990936,273.615112 511.629150,273.615112 
	C511.629150,271.700562 511.629150,270.286316 511.629150,268.763550 
	C500.153381,268.763550 488.909393,268.763550 477.294373,268.763550 
	C477.421051,270.484680 477.522919,271.868805 477.646423,273.546570 
	C479.030914,273.546570 480.034912,273.692627 480.981934,273.522125 
	C485.914215,272.634155 487.732361,274.795929 488.809906,279.618011 
	C493.192719,299.230164 498.126892,318.718506 502.711792,338.286713 
	C503.313080,340.853088 503.816528,342.937408 507.002472,342.166229 
	C509.895050,341.466064 513.904053,344.451935 515.279053,338.702850 
	C517.825623,328.055267 521.115967,317.584717 524.131775,307.050537 
	C525.606750,301.898407 527.161011,296.769012 529.015564,290.491486 
	C534.311584,308.591370 539.223755,325.379425 544.162292,342.257568 
	C547.834656,342.257568 551.142639,342.257568 554.630676,342.257568 
	C555.063110,340.684418 555.550964,339.114685 555.924805,337.518250 
	C560.584900,317.621460 565.358398,297.749481 569.758545,277.795227 
	C570.568237,274.123749 572.072632,273.109497 575.439392,273.510529 
	C577.170532,273.716797 578.946533,273.546722 581.033325,273.546722 
	C580.857300,271.462463 580.739807,270.071198 580.618042,268.629578 
	C571.277527,268.629578 562.316711,268.629578 553.127502,268.629578 
	C553.127502,270.239014 553.127502,271.676483 553.127502,273.735596 
	C557.098511,273.735596 560.955200,273.735596 565.152710,273.735596 
	C560.997742,291.235992 557.002747,308.062347 552.727600,326.068848 
	C548.428833,311.185394 544.530823,297.634583 540.598083,284.093781 
	C538.079834,275.423370 538.056946,275.430023 528.378601,275.567810 
M295.263397,285.183289 
	C288.027679,281.900024 280.484253,279.146576 273.647980,275.175629 
	C267.537384,271.626251 265.492676,262.591278 267.818878,255.058899 
	C269.801788,248.638123 275.466095,244.507233 282.881439,244.074051 
	C294.846313,243.375076 302.210632,249.236633 306.118958,262.842499 
	C307.013336,265.956116 308.105072,267.981506 311.914734,266.364868 
	C311.914734,258.747437 311.914734,251.118866 311.914734,243.204788 
	C298.972748,238.422058 285.660858,237.007874 272.315613,240.525070 
	C261.843658,243.285004 254.216141,249.730453 252.836380,261.363922 
	C251.412750,273.366913 255.203644,283.106934 266.134735,289.144012 
	C271.350494,292.024597 276.775360,294.630524 282.337616,296.752472 
	C288.870758,299.244781 293.591034,303.704803 297.593597,309.105988 
	C303.068237,316.493683 303.657623,324.327667 299.458527,330.910217 
	C295.607880,336.946533 286.907654,340.012970 278.628815,338.432434 
	C265.830811,335.989105 259.775970,326.893280 256.167480,315.563507 
	C255.199341,312.523743 254.294510,310.796844 250.671631,312.553864 
	C251.381180,320.430786 251.979065,328.224487 252.886642,335.981964 
	C253.034485,337.245789 254.314774,339.012787 255.471970,339.426025 
	C269.259247,344.348969 283.296722,346.178467 297.444183,341.122040 
	C316.134033,334.442108 323.283844,310.255646 310.525574,295.609985 
	C306.764099,291.292053 300.853271,288.846466 295.263397,285.183289 
M722.060303,276.639771 
	C722.037109,285.923767 721.122742,295.311340 722.187439,304.468872 
	C724.055115,320.532928 732.056396,333.292786 747.482300,339.459564 
	C764.311584,346.187317 781.617981,345.728638 798.640686,339.419525 
	C799.862122,338.966797 801.321350,337.311554 801.459290,336.079742 
	C802.342468,328.195007 802.886841,320.272339 803.577759,311.938141 
	C801.552551,312.065887 799.997986,312.163971 798.610535,312.251495 
	C798.034790,314.333008 797.632019,315.942047 797.145081,317.525177 
	C792.739685,331.848358 784.635742,338.352264 770.645203,338.815216 
	C758.065369,339.231476 748.070190,332.667389 743.776489,319.239655 
	C737.592102,299.899384 737.325317,280.209473 744.813538,261.074371 
	C749.664124,248.679291 759.137329,243.242416 772.261841,243.858292 
	C783.854065,244.402283 791.877136,250.854950 795.896423,263.352295 
	C796.843079,266.295837 798.095642,267.172424 801.439514,265.929657 
	C801.439514,259.142792 801.567566,252.172562 801.307251,245.216827 
	C801.266235,244.119644 799.601685,242.350586 798.461914,242.145203 
	C790.638977,240.735367 782.777161,238.824524 774.888428,238.623947 
	C744.763062,237.858032 728.734680,249.425430 722.060303,276.639771 
M465.217102,275.394989 
	C462.740570,273.514038 460.529083,270.943451 457.741425,269.871887 
	C445.887299,265.315125 433.865814,265.583801 422.360199,270.903412 
	C419.154846,272.385406 416.052032,275.528259 414.428009,278.692352 
	C411.023651,285.325073 415.424988,291.492340 422.581421,291.184875 
	C427.704773,290.964813 429.135925,288.320190 429.086975,283.404907 
	C429.009186,275.595703 433.931091,271.612152 442.594330,271.594452 
	C449.339478,271.580658 454.138336,276.630249 454.204224,283.856445 
	C454.238953,287.668091 454.210327,291.480347 454.210327,295.428802 
	C452.353912,296.045380 450.805145,296.544312 449.266724,297.073303 
	C440.322876,300.148560 431.160980,302.719574 422.501068,306.454193 
	C413.786499,310.212402 410.812103,317.040375 412.013977,326.941986 
	C413.018921,335.221039 418.656830,341.508942 427.329529,343.205292 
	C438.858734,345.460419 449.571960,344.578766 456.713470,333.293396 
	C462.126312,342.336029 467.508728,344.671753 478.423340,342.403015 
	C477.820709,340.815613 477.694672,338.671448 476.608551,337.925812 
	C470.871002,333.987000 469.212006,328.215057 469.070740,321.872742 
	C468.833221,311.212219 469.240387,300.529755 468.743439,289.886078 
	C468.525116,285.209991 466.751556,280.606476 465.217102,275.394989 
M847.482910,344.154205 
	C848.979431,344.099487 850.479309,344.090759 851.972046,343.983002 
	C868.102844,342.818115 877.697388,334.415405 880.711243,318.572205 
	C882.569519,308.803284 882.297852,299.017273 879.809509,289.381409 
	C876.708069,277.371002 868.847473,270.340668 856.684570,268.192627 
	C853.749817,267.674377 850.734314,267.479065 847.749146,267.403168 
	C832.233398,267.008514 818.897522,272.379761 814.793091,290.473267 
	C812.360535,301.196350 812.479248,311.976440 815.282227,322.575226 
	C818.316772,334.049713 825.777771,341.192657 837.607544,343.337006 
	C840.530884,343.866882 843.546631,343.886932 847.482910,344.154205 
M754.500000,203.999954 
	C740.199707,203.999954 725.899414,203.999954 711.366821,203.999954 
	C711.366821,205.787750 711.366821,207.175781 711.366821,208.739075 
	C766.586182,208.739075 821.664368,208.739075 876.692383,208.739075 
	C876.692383,207.075043 876.692383,205.676544 876.692383,203.999954 
	C836.117737,203.999954 795.808838,203.999954 754.500000,203.999954 
z"/>
<path fill="#0D0D0D" opacity="1.000000" stroke="none" 
	d="
M571.896545,204.132050 
	C576.703918,203.250046 581.307251,203.041428 585.307495,201.380554 
	C620.416687,186.803543 655.417664,171.966034 690.455139,157.216293 
	C691.494934,156.778580 692.583740,156.457245 693.883362,155.999329 
	C694.627258,157.570068 695.307861,159.007233 696.132812,160.749084 
	C679.240723,167.819702 662.578796,174.807190 645.906250,181.769394 
	C625.222839,190.406448 604.546204,199.060181 583.820007,207.593399 
	C581.583618,208.514145 579.037964,209.135818 576.635498,209.136734 
	C392.005096,209.207092 207.374680,209.201248 22.744261,209.201263 
	C21.924936,209.201263 21.105612,209.201263 19.913189,209.201263 
	C19.913189,207.500793 19.913189,205.993790 19.913189,204.132050 
	C203.888016,204.132050 387.650421,204.132050 571.896545,204.132050 
z"/>
<path fill="#060606" opacity="1.000000" stroke="none" 
	d="
M674.032532,275.989197 
	C678.844971,275.989197 683.166382,275.989197 687.728882,275.989197 
	C693.488464,295.542297 692.014771,313.542999 677.477478,329.817749 
	C682.431030,333.388397 687.216736,336.838165 692.376343,340.557404 
	C692.672302,343.307129 691.220764,344.668060 688.070007,343.970367 
	C683.068298,342.862854 677.903320,342.101654 673.180542,340.244995 
	C669.196533,338.678772 666.111267,338.741333 662.051758,340.335175 
	C645.517639,346.826843 629.140991,346.993134 614.190613,336.043915 
	C595.388916,322.274109 594.250854,289.476624 618.456360,279.689667 
	C618.881348,279.517792 619.180481,279.034302 619.161377,279.052338 
	C618.106079,274.083344 616.648621,269.474243 616.221924,264.771667 
	C615.120667,252.635483 621.741028,243.216965 633.531433,240.232239 
	C643.377991,237.739609 653.296082,237.956802 663.105957,240.940536 
	C666.647949,242.017853 668.608643,243.646683 668.290344,247.879745 
	C667.855896,253.657959 668.181885,259.493347 668.181885,265.359283 
	C665.230957,266.411346 663.808289,265.821808 662.926819,262.818634 
	C661.768555,258.872070 660.378113,254.870117 658.322510,251.337082 
	C654.455750,244.691208 646.721985,241.858582 639.326233,243.742737 
	C631.025208,245.857529 626.866272,253.437592 629.487610,263.044495 
	C630.779419,267.778625 633.032166,272.355835 635.467712,276.654083 
	C645.380371,294.147705 658.213562,309.415466 672.159546,323.792847 
	C672.836670,324.490906 673.686890,325.021057 674.475891,325.644714 
	C681.099670,318.103180 684.389526,309.476288 684.157471,299.527802 
	C683.915161,289.137756 677.694885,281.931946 667.395081,280.468567 
	C664.862915,280.108826 662.544312,280.095947 663.915039,275.989197 
	C666.965942,275.989197 670.253723,275.989197 674.032532,275.989197 
M633.554932,301.948395 
	C629.378113,295.505646 625.201294,289.062897 621.000000,282.582336 
	C609.921326,292.305267 611.950562,314.495331 621.335815,325.919342 
	C631.094055,337.797363 649.835510,341.915955 661.368469,335.165466 
	C652.303284,324.363983 643.140564,313.446381 633.554932,301.948395 
z"/>
<path fill="#060606" opacity="1.000000" stroke="none" 
	d="
M109.977249,268.059174 
	C114.704727,282.952271 115.102501,297.651794 110.807121,312.195496 
	C105.750252,329.317444 93.531754,339.143036 76.131386,340.780884 
	C57.632984,342.522034 38.966858,342.481323 21.032871,343.192535 
	C20.133751,342.045258 19.778566,341.800659 19.763857,341.537109 
	C19.700403,340.400024 19.736717,339.257385 19.736717,337.567596 
	C23.920021,337.567596 27.989237,337.567596 32.353470,337.567596 
	C32.353470,306.466492 32.353470,275.912811 32.353470,245.049423 
	C28.415163,245.049423 24.454506,245.049423 20.060040,245.049423 
	C19.833241,243.439117 19.640425,242.070068 19.466488,240.835083 
	C19.990322,240.456848 20.251995,240.102585 20.507883,240.106705 
	C38.637726,240.399261 56.830997,239.891342 74.877823,241.282028 
	C91.542625,242.566208 103.725273,251.569595 109.977249,268.059174 
M48.209267,294.499878 
	C48.209267,308.720459 48.209267,322.941040 48.209267,337.941498 
	C55.923996,337.365906 62.861465,336.964569 69.774757,336.308441 
	C84.356071,334.924530 91.883827,325.932892 94.490501,312.350189 
	C97.338852,297.508057 97.181816,282.576904 93.968201,267.786499 
	C92.332886,260.260132 88.870338,253.651154 81.723839,249.866013 
	C71.191948,244.287796 59.830223,244.620377 48.209270,245.046661 
	C48.209270,261.593323 48.209270,277.546570 48.209267,294.499878 
z"/>
<path fill="#0A0A0A" opacity="1.000000" stroke="none" 
	d="
M169.660553,309.000610 
	C169.660553,318.628784 169.660553,327.757141 169.660553,338.307343 
	C179.021133,337.126282 187.949844,336.606537 196.585617,334.735077 
	C204.801132,332.954742 209.352203,326.820526 210.926498,318.579651 
	C211.331146,316.461487 211.743607,314.344788 212.191574,312.024933 
	C213.655640,312.024933 215.084106,312.024933 217.112885,312.024933 
	C216.272842,322.086090 215.438614,332.077728 214.585785,342.292084 
	C189.946976,342.292084 165.673569,342.292084 141.142853,342.292084 
	C141.142853,340.790619 141.142853,339.365051 141.142853,337.502075 
	C145.315155,337.502075 149.410110,337.502075 153.713409,337.502075 
	C153.713409,306.478638 153.713409,275.890900 153.713409,245.003113 
	C149.608124,245.003113 145.664352,245.003113 141.349487,245.003113 
	C141.135880,243.365646 140.954178,241.972717 140.731247,240.263748 
	C165.365631,240.263748 189.762909,240.263748 214.389862,240.263748 
	C214.389862,248.845688 214.389862,257.285248 214.389862,265.887543 
	C211.501602,267.446869 209.841248,266.488434 209.121002,263.373596 
	C205.393982,247.255890 200.843430,244.460144 184.221573,244.996017 
	C179.580215,245.145660 174.929962,245.018829 169.973419,245.018829 
	C169.973419,258.465179 169.973419,271.657806 169.973419,284.840851 
	C187.639175,286.316650 193.802353,282.727783 195.254501,269.844116 
	C196.559891,269.691864 197.955872,269.529053 199.711670,269.324280 
	C199.711670,281.679626 199.711670,293.738098 199.711670,305.996521 
	C198.248306,305.996521 196.793304,305.996521 195.337616,305.990234 
	C192.707565,292.853455 187.234955,289.638641 169.660568,291.245148 
	C169.660568,296.956726 169.660568,302.728760 169.660553,309.000610 
z"/>
<path fill="#060606" opacity="1.000000" stroke="none" 
	d="
M349.142334,309.014160 
	C349.142334,318.646912 349.142334,327.782166 349.142334,337.353821 
	C352.806396,337.353821 356.071198,337.353821 359.661163,337.353821 
	C359.757477,339.184387 359.831512,340.591949 359.919952,342.272552 
	C348.177368,342.272552 336.743896,342.272552 325.161224,342.272552 
	C325.161224,340.711853 325.161224,339.267181 325.161224,337.571655 
	C328.340668,337.571655 331.317841,337.571655 334.641754,337.571655 
	C334.641754,306.630615 334.641754,275.938599 334.641754,244.847855 
	C331.515106,244.847855 328.425415,244.847855 325.148682,244.847855 
	C325.148682,243.012070 325.148682,241.573349 325.148682,239.975098 
	C333.095703,239.975098 340.886475,239.975098 349.005554,239.975098 
	C349.005554,252.841141 349.005554,265.602051 349.005554,279.417877 
	C350.597534,277.739410 351.546936,276.776428 352.454559,275.775513 
	C359.316528,268.207977 368.067505,265.755249 377.827911,267.121826 
	C387.908569,268.533264 393.734192,276.181702 393.899628,287.989655 
	C394.105072,302.651581 393.963806,317.318420 393.972015,331.983124 
	C393.972961,333.632690 393.972137,335.282257 393.972137,337.347595 
	C397.327911,337.347595 400.409943,337.347595 403.747284,337.347595 
	C403.747284,339.192871 403.747284,340.612640 403.747284,342.283936 
	C392.296661,342.283936 380.880127,342.283936 369.290558,342.283936 
	C369.290558,340.743225 369.290558,339.447571 369.290558,337.600647 
	C372.603851,337.600647 375.836578,337.600647 379.393921,337.600647 
	C379.538818,335.827087 379.729156,334.568726 379.731018,333.310120 
	C379.752136,318.978607 379.745026,304.647034 379.743042,290.315491 
	C379.742950,289.482452 379.752594,288.647705 379.706268,287.816650 
	C379.245178,279.541382 376.664001,275.230072 371.437073,273.979401 
	C364.971436,272.432312 356.379944,275.719208 353.460266,281.866333 
	C351.303772,286.406555 350.138794,291.541718 349.292755,296.540558 
	C348.634521,300.429657 349.149048,304.517242 349.142334,309.014160 
z"/>
<path fill="#0B0B0B" opacity="1.000000" stroke="none" 
	d="
M528.788330,275.517212 
	C538.056946,275.430023 538.079834,275.423370 540.598083,284.093781 
	C544.530823,297.634583 548.428833,311.185394 552.727600,326.068848 
	C557.002747,308.062347 560.997742,291.235992 565.152710,273.735596 
	C560.955200,273.735596 557.098511,273.735596 553.127502,273.735596 
	C553.127502,271.676483 553.127502,270.239014 553.127502,268.629578 
	C562.316711,268.629578 571.277527,268.629578 580.618042,268.629578 
	C580.739807,270.071198 580.857300,271.462463 581.033325,273.546722 
	C578.946533,273.546722 577.170532,273.716797 575.439392,273.510529 
	C572.072632,273.109497 570.568237,274.123749 569.758545,277.795227 
	C565.358398,297.749481 560.584900,317.621460 555.924805,337.518250 
	C555.550964,339.114685 555.063110,340.684418 554.630676,342.257568 
	C551.142639,342.257568 547.834656,342.257568 544.162292,342.257568 
	C539.223755,325.379425 534.311584,308.591370 529.015564,290.491486 
	C527.161011,296.769012 525.606750,301.898407 524.131775,307.050537 
	C521.115967,317.584717 517.825623,328.055267 515.279053,338.702850 
	C513.904053,344.451935 509.895050,341.466064 507.002472,342.166229 
	C503.816528,342.937408 503.313080,340.853088 502.711792,338.286713 
	C498.126892,318.718506 493.192719,299.230164 488.809906,279.618011 
	C487.732361,274.795929 485.914215,272.634155 480.981934,273.522125 
	C480.034912,273.692627 479.030914,273.546570 477.646423,273.546570 
	C477.522919,271.868805 477.421051,270.484680 477.294373,268.763550 
	C488.909393,268.763550 500.153381,268.763550 511.629150,268.763550 
	C511.629150,270.286316 511.629150,271.700562 511.629150,273.615112 
	C507.990936,273.615112 504.557434,273.615112 500.664429,273.615112 
	C504.695770,290.898041 508.591217,307.598328 512.486694,324.298615 
	C512.791199,324.346191 513.095764,324.393738 513.400330,324.441315 
	C515.913574,315.799713 518.429688,307.158936 520.939087,298.516266 
	C522.883728,291.818756 524.789429,285.109619 526.792664,278.429749 
	C527.098755,277.409027 527.839111,276.518555 528.788330,275.517212 
z"/>
<path fill="#050505" opacity="1.000000" stroke="none" 
	d="
M295.595428,285.363037 
	C300.853271,288.846466 306.764099,291.292053 310.525574,295.609985 
	C323.283844,310.255646 316.134033,334.442108 297.444183,341.122040 
	C283.296722,346.178467 269.259247,344.348969 255.471970,339.426025 
	C254.314774,339.012787 253.034485,337.245789 252.886642,335.981964 
	C251.979065,328.224487 251.381180,320.430786 250.671631,312.553864 
	C254.294510,310.796844 255.199341,312.523743 256.167480,315.563507 
	C259.775970,326.893280 265.830811,335.989105 278.628815,338.432434 
	C286.907654,340.012970 295.607880,336.946533 299.458527,330.910217 
	C303.657623,324.327667 303.068237,316.493683 297.593597,309.105988 
	C293.591034,303.704803 288.870758,299.244781 282.337616,296.752472 
	C276.775360,294.630524 271.350494,292.024597 266.134735,289.144012 
	C255.203644,283.106934 251.412750,273.366913 252.836380,261.363922 
	C254.216141,249.730453 261.843658,243.285004 272.315613,240.525070 
	C285.660858,237.007874 298.972748,238.422058 311.914734,243.204788 
	C311.914734,251.118866 311.914734,258.747437 311.914734,266.364868 
	C308.105072,267.981506 307.013336,265.956116 306.118958,262.842499 
	C302.210632,249.236633 294.846313,243.375076 282.881439,244.074051 
	C275.466095,244.507233 269.801788,248.638123 267.818878,255.058899 
	C265.492676,262.591278 267.537384,271.626251 273.647980,275.175629 
	C280.484253,279.146576 288.027679,281.900024 295.595428,285.363037 
z"/>
<path fill="#060606" opacity="1.000000" stroke="none" 
	d="
M722.130371,276.218262 
	C728.734680,249.425430 744.763062,237.858032 774.888428,238.623947 
	C782.777161,238.824524 790.638977,240.735367 798.461914,242.145203 
	C799.601685,242.350586 801.266235,244.119644 801.307251,245.216827 
	C801.567566,252.172562 801.439514,259.142792 801.439514,265.929657 
	C798.095642,267.172424 796.843079,266.295837 795.896423,263.352295 
	C791.877136,250.854950 783.854065,244.402283 772.261841,243.858292 
	C759.137329,243.242416 749.664124,248.679291 744.813538,261.074371 
	C737.325317,280.209473 737.592102,299.899384 743.776489,319.239655 
	C748.070190,332.667389 758.065369,339.231476 770.645203,338.815216 
	C784.635742,338.352264 792.739685,331.848358 797.145081,317.525177 
	C797.632019,315.942047 798.034790,314.333008 798.610535,312.251495 
	C799.997986,312.163971 801.552551,312.065887 803.577759,311.938141 
	C802.886841,320.272339 802.342468,328.195007 801.459290,336.079742 
	C801.321350,337.311554 799.862122,338.966797 798.640686,339.419525 
	C781.617981,345.728638 764.311584,346.187317 747.482300,339.459564 
	C732.056396,333.292786 724.055115,320.532928 722.187439,304.468872 
	C721.122742,295.311340 722.037109,285.923767 722.130371,276.218262 
z"/>
<path fill="#060606" opacity="1.000000" stroke="none" 
	d="
M465.450623,275.682495 
	C466.751556,280.606476 468.525116,285.209991 468.743439,289.886078 
	C469.240387,300.529755 468.833221,311.212219 469.070740,321.872742 
	C469.212006,328.215057 470.871002,333.987000 476.608551,337.925812 
	C477.694672,338.671448 477.820709,340.815613 478.423340,342.403015 
	C467.508728,344.671753 462.126312,342.336029 456.713470,333.293396 
	C449.571960,344.578766 438.858734,345.460419 427.329529,343.205292 
	C418.656830,341.508942 413.018921,335.221039 412.013977,326.941986 
	C410.812103,317.040375 413.786499,310.212402 422.501068,306.454193 
	C431.160980,302.719574 440.322876,300.148560 449.266724,297.073303 
	C450.805145,296.544312 452.353912,296.045380 454.210327,295.428802 
	C454.210327,291.480347 454.238953,287.668091 454.204224,283.856445 
	C454.138336,276.630249 449.339478,271.580658 442.594330,271.594452 
	C433.931091,271.612152 429.009186,275.595703 429.086975,283.404907 
	C429.135925,288.320190 427.704773,290.964813 422.581421,291.184875 
	C415.424988,291.492340 411.023651,285.325073 414.428009,278.692352 
	C416.052032,275.528259 419.154846,272.385406 422.360199,270.903412 
	C433.865814,265.583801 445.887299,265.315125 457.741425,269.871887 
	C460.529083,270.943451 462.740570,273.514038 465.450623,275.682495 
M428.367035,319.957886 
	C428.404327,321.449829 428.340820,322.952301 428.495575,324.431976 
	C429.368561,332.779327 432.904266,336.708618 439.775208,337.057281 
	C448.345825,337.492126 453.206421,334.255859 454.205383,325.533020 
	C455.114044,317.598663 454.397766,309.478210 454.397766,301.109161 
	C449.109894,302.987610 443.810455,304.806763 438.558136,306.752991 
	C432.792328,308.889496 429.197693,312.864288 428.367035,319.957886 
z"/>
<path fill="#060606" opacity="1.000000" stroke="none" 
	d="
M847.001404,344.147797 
	C843.546631,343.886932 840.530884,343.866882 837.607544,343.337006 
	C825.777771,341.192657 818.316772,334.049713 815.282227,322.575226 
	C812.479248,311.976440 812.360535,301.196350 814.793091,290.473267 
	C818.897522,272.379761 832.233398,267.008514 847.749146,267.403168 
	C850.734314,267.479065 853.749817,267.674377 856.684570,268.192627 
	C868.847473,270.340668 876.708069,277.371002 879.809509,289.381409 
	C882.297852,299.017273 882.569519,308.803284 880.711243,318.572205 
	C877.697388,334.415405 868.102844,342.818115 851.972046,343.983002 
	C850.479309,344.090759 848.979431,344.099487 847.001404,344.147797 
M830.002808,289.759125 
	C828.100281,301.700104 827.856262,313.622253 831.088989,325.372131 
	C832.735718,331.357391 835.808655,336.417877 842.415955,338.115082 
	C852.654297,340.744995 860.640564,336.195007 863.845398,325.571014 
	C867.075378,314.864166 867.045410,303.865295 865.382690,292.937592 
	C864.695129,288.419464 863.315247,283.834412 861.326050,279.727448 
	C858.427429,273.742798 852.460083,271.413116 845.922363,272.156036 
	C835.803345,273.305939 832.271790,280.409546 830.002808,289.759125 
z"/>
<path fill="#000000" opacity="1.000000" stroke="none" 
	d="
M755.000000,203.999954 
	C795.808838,203.999954 836.117737,203.999954 876.692383,203.999954 
	C876.692383,205.676544 876.692383,207.075043 876.692383,208.739075 
	C821.664368,208.739075 766.586182,208.739075 711.366821,208.739075 
	C711.366821,207.175781 711.366821,205.787750 711.366821,203.999954 
	C725.899414,203.999954 740.199707,203.999954 755.000000,203.999954 
z"/>
<path fill="#FBFBFB" opacity="1.000000" stroke="none" 
	d="
M633.766418,302.238586 
	C643.140564,313.446381 652.303284,324.363983 661.368469,335.165466 
	C649.835510,341.915955 631.094055,337.797363 621.335815,325.919342 
	C611.950562,314.495331 609.921326,292.305267 621.000000,282.582336 
	C625.201294,289.062897 629.378113,295.505646 633.766418,302.238586 
z"/>
<path fill="#FCFCFC" opacity="1.000000" stroke="none" 
	d="
M48.209267,293.999847 
	C48.209270,277.546570 48.209270,261.593323 48.209270,245.046661 
	C59.830223,244.620377 71.191948,244.287796 81.723839,249.866013 
	C88.870338,253.651154 92.332886,260.260132 93.968201,267.786499 
	C97.181816,282.576904 97.338852,297.508057 94.490501,312.350189 
	C91.883827,325.932892 84.356071,334.924530 69.774757,336.308441 
	C62.861465,336.964569 55.923996,337.365906 48.209267,337.941498 
	C48.209267,322.941040 48.209267,308.720459 48.209267,293.999847 
z"/>
<path fill="#FBFBFB" opacity="1.000000" stroke="none" 
	d="
M428.438110,319.555969 
	C429.197693,312.864288 432.792328,308.889496 438.558136,306.752991 
	C443.810455,304.806763 449.109894,302.987610 454.397766,301.109161 
	C454.397766,309.478210 455.114044,317.598663 454.205383,325.533020 
	C453.206421,334.255859 448.345825,337.492126 439.775208,337.057281 
	C432.904266,336.708618 429.368561,332.779327 428.495575,324.431976 
	C428.340820,322.952301 428.404327,321.449829 428.438110,319.555969 
z"/>
<path fill="#FDFDFD" opacity="1.000000" stroke="none" 
	d="
M830.052246,289.340454 
	C832.271790,280.409546 835.803345,273.305939 845.922363,272.156036 
	C852.460083,271.413116 858.427429,273.742798 861.326050,279.727448 
	C863.315247,283.834412 864.695129,288.419464 865.382690,292.937592 
	C867.045410,303.865295 867.075378,314.864166 863.845398,325.571014 
	C860.640564,336.195007 852.654297,340.744995 842.415955,338.115082 
	C835.808655,336.417877 832.735718,331.357391 831.088989,325.372131 
	C827.856262,313.622253 828.100281,301.700104 830.052246,289.340454 
z"/>
</svg>